<svg xmlns="http://www.w3.org/2000/svg" xmlns:xlink="http://www.w3.org/1999/xlink" width="500" zoomAndPan="magnify" viewBox="0 0 375 374.999991" height="500" preserveAspectRatio="xMidYMid meet" version="1.0"><defs><g/></defs><g fill="#000000" fill-opacity="1"><g transform="translate(152.034107, 282.749981)"><g><path d="M 157.109375 -57.984375 C 155.328125 -74.859375 145.109375 -85.328125 129.265625 -88.390625 C 148.421875 -93.75 161.71875 -110.359375 161.71875 -133.859375 C 161.71875 -162.984375 140.765625 -181.890625 106.015625 -181.890625 L 21.71875 -181.890625 L 21.71875 0 L 45.46875 0 L 45.46875 -78.421875 L 101.671875 -78.421875 C 122.875 -78.421875 132.078125 -70 134.375 -48.546875 L 139.734375 0 L 163.75 0 Z M 45.46875 -99.125 L 45.46875 -161.203125 L 101.9375 -161.203125 C 124.921875 -161.203125 137.4375 -150.734375 137.4375 -131.5625 C 137.4375 -110.875 122.625 -99.125 97.84375 -99.125 Z M 45.46875 -99.125 "/></g></g></g><path stroke-linecap="butt" transform="matrix(0.75, 0, 0, 0.75, 23.751113, 8.999999)" fill="none" stroke-linejoin="miter" d="M 231.170406 287.661478 C 228.758948 265.208352 215.206863 251.234392 194.081862 247.161475 C 219.613114 240.010433 237.326656 217.885432 237.326656 186.536471 C 237.326656 147.697927 209.383946 122.500009 163.061027 122.500009 L 50.628728 122.500009 L 50.628728 365.000025 L 82.311021 365.000025 L 82.311021 260.46356 L 157.243318 260.46356 C 185.514153 260.46356 197.821446 271.692727 200.816237 300.302104 L 208.050613 365.000025 L 240.071448 365.000025 Z M 82.311021 232.854183 L 82.311021 150.026052 L 157.571443 150.026052 C 188.258945 150.026052 204.977696 164.000012 204.977696 189.614597 C 204.977696 217.14064 185.18082 232.854183 152.170401 232.854183 Z M 82.311021 232.854183 " stroke="#ffffff" stroke-width="25.5474" stroke-opacity="1" stroke-miterlimit="4"/><g fill="#000000" fill-opacity="1"><g transform="translate(40.016737, 282.749981)"><g><path d="M 157.109375 -57.984375 C 155.328125 -74.859375 145.109375 -85.328125 129.265625 -88.390625 C 148.421875 -93.75 161.71875 -110.359375 161.71875 -133.859375 C 161.71875 -162.984375 140.765625 -181.890625 106.015625 -181.890625 L 21.71875 -181.890625 L 21.71875 0 L 45.46875 0 L 45.46875 -78.421875 L 101.671875 -78.421875 C 122.875 -78.421875 132.078125 -70 134.375 -48.546875 L 139.734375 0 L 163.75 0 Z M 45.46875 -99.125 L 45.46875 -161.203125 L 101.9375 -161.203125 C 124.921875 -161.203125 137.4375 -150.734375 137.4375 -131.5625 C 137.4375 -110.875 122.625 -99.125 97.84375 -99.125 Z M 45.46875 -99.125 "/></g></g></g></svg>